<svg width="600" height="500" viewBox="0 0 600 500" xmlns="http://www.w3.org/2000/svg">
  <!-- Neural network connections (behind the head) -->
  <!-- Layer 1 to Layer 2 connections -->
  <line x1="80" y1="100" x2="200" y2="160" stroke="#408A71" stroke-width="1.5" opacity="0.4"/>
  <line x1="80" y1="100" x2="200" y2="260" stroke="#408A71" stroke-width="1.5" opacity="0.3"/>
  <line x1="80" y1="100" x2="200" y2="360" stroke="#408A71" stroke-width="1.5" opacity="0.2"/>
  <line x1="80" y1="220" x2="200" y2="160" stroke="#408A71" stroke-width="1.5" opacity="0.3"/>
  <line x1="80" y1="220" x2="200" y2="260" stroke="#408A71" stroke-width="1.5" opacity="0.4"/>
  <line x1="80" y1="220" x2="200" y2="360" stroke="#408A71" stroke-width="1.5" opacity="0.3"/>
  <line x1="80" y1="340" x2="200" y2="160" stroke="#408A71" stroke-width="1.5" opacity="0.2"/>
  <line x1="80" y1="340" x2="200" y2="260" stroke="#408A71" stroke-width="1.5" opacity="0.3"/>
  <line x1="80" y1="340" x2="200" y2="360" stroke="#408A71" stroke-width="1.5" opacity="0.4"/>
  <line x1="80" y1="440" x2="200" y2="260" stroke="#408A71" stroke-width="1.5" opacity="0.2"/>
  <line x1="80" y1="440" x2="200" y2="360" stroke="#408A71" stroke-width="1.5" opacity="0.3"/>

  <!-- Layer 2 to Layer 3 connections -->
  <line x1="200" y1="160" x2="340" y2="200" stroke="#5B8FA8" stroke-width="1.5" opacity="0.4"/>
  <line x1="200" y1="160" x2="340" y2="310" stroke="#5B8FA8" stroke-width="1.5" opacity="0.3"/>
  <line x1="200" y1="260" x2="340" y2="200" stroke="#5B8FA8" stroke-width="1.5" opacity="0.4"/>
  <line x1="200" y1="260" x2="340" y2="310" stroke="#5B8FA8" stroke-width="1.5" opacity="0.4"/>
  <line x1="200" y1="360" x2="340" y2="200" stroke="#5B8FA8" stroke-width="1.5" opacity="0.3"/>
  <line x1="200" y1="360" x2="340" y2="310" stroke="#5B8FA8" stroke-width="1.5" opacity="0.4"/>

  <!-- Layer 3 to output -->
  <line x1="340" y1="200" x2="460" y2="255" stroke="#BCFD49" stroke-width="2" opacity="0.5"/>
  <line x1="340" y1="310" x2="460" y2="255" stroke="#BCFD49" stroke-width="2" opacity="0.5"/>

  <!-- Head silhouette (scaled and positioned) -->
  <g transform="translate(320, 50) scale(3.2)" opacity="0.25" fill="#6AB89A">
    <path d="M56.4,87.8c0.5-0.7,0.7-1.4,0.9-2.1l1.6-5.6c0.8-2.7,1.9-4,3.7-4.1c0.3,0,7.4-0.3,9.3-0.6c2.1-0.2,3.8-2.1,4.4-3.7c0.4-1,0.3-2,0.2-2.8c-0.1-0.8-0.1-1.6,0.2-2.2c0.1-0.2,0.3-0.5,0.5-0.7c0.1-0.1,0.2-0.2,0.3-0.4c0.6-0.7,0.8-1.4,0.8-2c0-0.4-0.2-0.7-0.2-0.9c0-0.1-0.1-0.2-0.1-0.4c0-0.1,0.2-0.4,0.4-0.6c0.4-0.5,1-1.2,1-2.2c0-0.6-0.2-1.2-0.5-1.8c-0.1-0.3,0-0.5,0.1-0.7c0.1-0.1,0.3-0.2,0.4-0.2c0.8-0.1,1.8-0.7,2.2-1c0.8-0.6,1.3-1.3,1.5-2.3c0.4-2.6-2.1-5.9-4.1-8.5c-0.8-1-1.5-1.9-1.8-2.5c-0.2-0.4-0.4-0.8-0.4-1.2c0-0.3,0.1-0.6,0.2-1.1c1.7-6.2-0.9-12.9-3.3-17.5c-2.4-4.5-6.6-7.9-12.6-10.2c-4.4-1.7-9.4-2.6-14.6-2.6c-3.3,0-6.5,0.4-9.6,1.1c-11.2,2.7-19.3,13.5-19.7,26.4c-0.2,5.1,1.5,9,4.1,13.3c2.4,4,4.3,9.1,5.5,15c0.3,1.7,0.6,3.5,0.2,5.2c-0.2,0.8-0.5,1.6-0.8,2.3c-1,2.4-2,5.1,0.7,7.8c1.8,1.8,4.1,3,6,3.9c4,1.9,8.1,3.3,12.4,4.3c1.6,0.3,3.3,0.6,5,0.6c1.3,0,2.7-0.2,4-0.7C55.2,89,55.9,88.5,56.4,87.8z"/>
  </g>

  <!-- Input layer nodes (left) -->
  <circle cx="80" cy="100" r="18" fill="#D4A843" opacity="0.9"/>
  <circle cx="80" cy="220" r="18" fill="#D4A843" opacity="0.9"/>
  <circle cx="80" cy="340" r="18" fill="#5B8FA8" opacity="0.9"/>
  <circle cx="80" cy="440" r="14" fill="#5B8FA8" opacity="0.7"/>

  <!-- Hidden layer nodes -->
  <circle cx="200" cy="160" r="16" fill="#6AB89A" opacity="0.8"/>
  <circle cx="200" cy="260" r="16" fill="#6AB89A" opacity="0.8"/>
  <circle cx="200" cy="360" r="16" fill="#6AB89A" opacity="0.8"/>

  <!-- Decision layer nodes -->
  <circle cx="340" cy="200" r="14" fill="#8B7EAF" opacity="0.8"/>
  <circle cx="340" cy="310" r="14" fill="#8B7EAF" opacity="0.8"/>

  <!-- Output node -->
  <circle cx="460" cy="255" r="20" fill="#BCFD49" opacity="0.9"/>
  <text x="460" y="260" text-anchor="middle" font-family="monospace" font-size="12" font-weight="700" fill="#091413">GO</text>

  <!-- Labels -->
  <text x="80" y="480" text-anchor="middle" font-family="monospace" font-size="9" fill="#408A71" opacity="0.6">INPUTS</text>
  <text x="200" y="420" text-anchor="middle" font-family="monospace" font-size="9" fill="#408A71" opacity="0.6">HIDDEN</text>
  <text x="340" y="380" text-anchor="middle" font-family="monospace" font-size="9" fill="#408A71" opacity="0.6">DECISION</text>
  <text x="460" y="300" text-anchor="middle" font-family="monospace" font-size="9" fill="#BCFD49" opacity="0.6">OUTPUT</text>

  <!-- Input labels -->
  <text x="20" y="105" text-anchor="middle" font-family="monospace" font-size="8" fill="#D4A843">WIN%</text>
  <text x="20" y="225" text-anchor="middle" font-family="monospace" font-size="8" fill="#D4A843">IND.</text>
  <text x="20" y="345" text-anchor="middle" font-family="monospace" font-size="8" fill="#5B8FA8">TIME</text>
  <text x="20" y="445" text-anchor="middle" font-family="monospace" font-size="8" fill="#5B8FA8">REG.</text>
</svg>
